# xmcd CD database file
#
# Track frame offsets:
#	150
#	22351
#	39505
#	55703
#	70329
#
# Disc length: 1251 seconds
#
# Revision: 1
# Processed by: cddbd v1.5.2PL0 Copyright (c) Steve Scherf et al.
# Submitted via: CDex 1.70beta3
#
DISCID=4204e105
DTITLE=Hiroko Williams - MY ROOM side1
DYEAR=2015
DGENRE=Jazz
TTITLE0=Like A Lover
TTITLE1=Again
TTITLE2=Moon River
TTITLE3=In My Life
TTITLE4=Quiet Nights Of Quiet Sters
EXTD=YEAR: 2015
EXTT0=
EXTT1=
EXTT2=
EXTT3=
EXTT4=
PLAYORDER=
